<svg width="45" height="15" viewBox="0 0 45 15" fill="none" xmlns="http://www.w3.org/2000/svg">
<path d="M8.25195 6.0625V8.5332C8.25195 9.60091 8.15104 10.5189 7.94922 11.2871C7.7474 12.0553 7.46419 12.6868 7.09961 13.1816C6.73503 13.6699 6.30208 14.0312 5.80078 14.2656C5.29948 14.5 4.74609 14.6172 4.14062 14.6172C3.65885 14.6172 3.20638 14.5423 2.7832 14.3926C2.36003 14.2428 1.97591 14.015 1.63086 13.709C1.29232 13.3965 0.999349 13.0026 0.751953 12.5273C0.511068 12.0456 0.325521 11.4759 0.195312 10.8184C0.0651042 10.1543 0 9.39258 0 8.5332V6.0625C0 4.99479 0.100911 4.08008 0.302734 3.31836C0.511068 2.55013 0.797526 1.92188 1.16211 1.43359C1.52669 0.945312 1.95964 0.58724 2.46094 0.359375C2.96875 0.125 3.52539 0.0078125 4.13086 0.0078125C4.60612 0.0078125 5.05534 0.0826823 5.47852 0.232422C5.90169 0.375651 6.28255 0.60026 6.62109 0.90625C6.95964 1.21224 7.24935 1.60612 7.49023 2.08789C7.73763 2.56315 7.92643 3.13281 8.05664 3.79688C8.18685 4.45443 8.25195 5.20964 8.25195 6.0625ZM5.50781 8.91406V5.66211C5.50781 5.16081 5.48503 4.72135 5.43945 4.34375C5.40039 3.96615 5.3418 3.64714 5.26367 3.38672C5.19206 3.1263 5.09766 2.91471 4.98047 2.75195C4.86979 2.58919 4.74284 2.47201 4.59961 2.40039C4.45638 2.32227 4.30013 2.2832 4.13086 2.2832C3.91602 2.2832 3.72396 2.3418 3.55469 2.45898C3.38542 2.57617 3.23893 2.76823 3.11523 3.03516C2.99154 3.29557 2.89714 3.64388 2.83203 4.08008C2.77344 4.50977 2.74414 5.03711 2.74414 5.66211V8.91406C2.74414 9.41536 2.76367 9.85807 2.80273 10.2422C2.84831 10.6263 2.91016 10.9551 2.98828 11.2285C3.07292 11.4954 3.16732 11.7103 3.27148 11.873C3.38216 12.0358 3.50911 12.1562 3.65234 12.2344C3.80208 12.306 3.96484 12.3418 4.14062 12.3418C4.34896 12.3418 4.53776 12.2832 4.70703 12.166C4.88281 12.0423 5.0293 11.847 5.14648 11.5801C5.26367 11.3132 5.35156 10.9616 5.41016 10.5254C5.47526 10.0827 5.50781 9.54557 5.50781 8.91406ZM14.127 7.18555V9.46094H9.37109V7.18555H14.127ZM23.7227 12.1465V14.4219H15.3438V12.4785L19.1914 7.58594C19.5625 7.07812 19.8522 6.62891 20.0605 6.23828C20.2689 5.84766 20.4186 5.49935 20.5098 5.19336C20.6009 4.88086 20.6465 4.58464 20.6465 4.30469C20.6465 3.88802 20.5977 3.52995 20.5 3.23047C20.4023 2.92448 20.2559 2.6901 20.0605 2.52734C19.8717 2.35807 19.6374 2.27344 19.3574 2.27344C19.0189 2.27344 18.7389 2.3776 18.5176 2.58594C18.2962 2.79427 18.1302 3.08073 18.0195 3.44531C17.9154 3.80339 17.8633 4.21029 17.8633 4.66602H15.1191C15.1191 3.81966 15.2917 3.04167 15.6367 2.33203C15.9883 1.61589 16.4798 1.04948 17.1113 0.632812C17.7493 0.209635 18.5143 -0.00195312 19.4062 -0.00195312C20.2721 -0.00195312 21.0013 0.160807 21.5938 0.486328C22.1862 0.811849 22.6322 1.27734 22.9316 1.88281C23.2376 2.48177 23.3906 3.20117 23.3906 4.04102C23.3906 4.50977 23.3288 4.96875 23.2051 5.41797C23.0814 5.86068 22.9056 6.30339 22.6777 6.74609C22.4499 7.18229 22.1667 7.62826 21.8281 8.08398C21.4961 8.53971 21.125 9.01172 20.7148 9.5L18.8594 12.1465H23.7227ZM32.7129 6.0625V8.5332C32.7129 9.60091 32.612 10.5189 32.4102 11.2871C32.2083 12.0553 31.9251 12.6868 31.5605 13.1816C31.196 13.6699 30.763 14.0312 30.2617 14.2656C29.7604 14.5 29.207 14.6172 28.6016 14.6172C28.1198 14.6172 27.6673 14.5423 27.2441 14.3926C26.821 14.2428 26.4368 14.015 26.0918 13.709C25.7533 13.3965 25.4603 13.0026 25.2129 12.5273C24.972 12.0456 24.7865 11.4759 24.6562 10.8184C24.526 10.1543 24.4609 9.39258 24.4609 8.5332V6.0625C24.4609 4.99479 24.5618 4.08008 24.7637 3.31836C24.972 2.55013 25.2585 1.92188 25.623 1.43359C25.9876 0.945312 26.4206 0.58724 26.9219 0.359375C27.4297 0.125 27.9863 0.0078125 28.5918 0.0078125C29.0671 0.0078125 29.5163 0.0826823 29.9395 0.232422C30.3626 0.375651 30.7435 0.60026 31.082 0.90625C31.4206 1.21224 31.7103 1.60612 31.9512 2.08789C32.1986 2.56315 32.3874 3.13281 32.5176 3.79688C32.6478 4.45443 32.7129 5.20964 32.7129 6.0625ZM29.9688 8.91406V5.66211C29.9688 5.16081 29.946 4.72135 29.9004 4.34375C29.8613 3.96615 29.8027 3.64714 29.7246 3.38672C29.653 3.1263 29.5586 2.91471 29.4414 2.75195C29.3307 2.58919 29.2038 2.47201 29.0605 2.40039C28.9173 2.32227 28.7611 2.2832 28.5918 2.2832C28.377 2.2832 28.1849 2.3418 28.0156 2.45898C27.8464 2.57617 27.6999 2.76823 27.5762 3.03516C27.4525 3.29557 27.3581 3.64388 27.293 4.08008C27.2344 4.50977 27.2051 5.03711 27.2051 5.66211V8.91406C27.2051 9.41536 27.2246 9.85807 27.2637 10.2422C27.3092 10.6263 27.3711 10.9551 27.4492 11.2285C27.5339 11.4954 27.6283 11.7103 27.7324 11.873C27.8431 12.0358 27.9701 12.1562 28.1133 12.2344C28.263 12.306 28.4258 12.3418 28.6016 12.3418C28.8099 12.3418 28.9987 12.2832 29.168 12.166C29.3438 12.0423 29.4902 11.847 29.6074 11.5801C29.7246 11.3132 29.8125 10.9616 29.8711 10.5254C29.9362 10.0827 29.9688 9.54557 29.9688 8.91406ZM33.6074 3.68945V2.9375C33.6074 2.39714 33.7051 1.9056 33.9004 1.46289C34.1022 1.02018 34.3984 0.665365 34.7891 0.398438C35.1862 0.13151 35.6712 -0.00195312 36.2441 -0.00195312C36.8431 -0.00195312 37.3411 0.13151 37.7383 0.398438C38.1419 0.665365 38.4382 1.02018 38.627 1.46289C38.8223 1.9056 38.9199 2.39714 38.9199 2.9375V3.68945C38.9199 4.2168 38.8223 4.70182 38.627 5.14453C38.4316 5.58724 38.1354 5.94206 37.7383 6.20898C37.3477 6.47591 36.8561 6.60938 36.2637 6.60938C35.6842 6.60938 35.196 6.47591 34.7988 6.20898C34.4017 5.94206 34.1022 5.58724 33.9004 5.14453C33.7051 4.70182 33.6074 4.2168 33.6074 3.68945ZM35.3945 2.9375V3.68945C35.3945 3.91081 35.4271 4.1224 35.4922 4.32422C35.5573 4.51953 35.6549 4.67904 35.7852 4.80273C35.9154 4.91992 36.0749 4.97852 36.2637 4.97852C36.4655 4.97852 36.6283 4.91992 36.752 4.80273C36.8822 4.67904 36.9766 4.51953 37.0352 4.32422C37.0938 4.1224 37.123 3.91081 37.123 3.68945V2.9375C37.123 2.70964 37.0905 2.49479 37.0254 2.29297C36.9668 2.09115 36.8724 1.93164 36.7422 1.81445C36.6185 1.69076 36.4525 1.62891 36.2441 1.62891C36.0618 1.62891 35.9056 1.69076 35.7754 1.81445C35.6452 1.93164 35.5475 2.09115 35.4824 2.29297C35.4238 2.49479 35.3945 2.70964 35.3945 2.9375ZM39.2129 11.6875V10.9355C39.2129 10.4017 39.3138 9.91341 39.5156 9.4707C39.724 9.02799 40.0234 8.67318 40.4141 8.40625C40.8112 8.13932 41.2995 8.00586 41.8789 8.00586C42.4714 8.00586 42.9629 8.13932 43.3535 8.40625C43.7507 8.67318 44.0469 9.02799 44.2422 9.4707C44.444 9.91341 44.5449 10.4017 44.5449 10.9355V11.6875C44.5449 12.2214 44.4473 12.7096 44.252 13.1523C44.0566 13.5951 43.7604 13.9499 43.3633 14.2168C42.9727 14.4837 42.4844 14.6172 41.8984 14.6172C41.3125 14.6172 40.8177 14.4837 40.4141 14.2168C40.0169 13.9499 39.7174 13.5951 39.5156 13.1523C39.3138 12.7096 39.2129 12.2214 39.2129 11.6875ZM41.0098 10.9355V11.6875C41.0098 11.9089 41.0488 12.1204 41.127 12.3223C41.2051 12.5241 41.3092 12.6868 41.4395 12.8105C41.5762 12.9277 41.7292 12.9863 41.8984 12.9863C42.1328 12.9863 42.3118 12.9277 42.4355 12.8105C42.5592 12.6868 42.6406 12.5273 42.6797 12.332C42.7253 12.1302 42.748 11.9154 42.748 11.6875V10.9355C42.748 10.7077 42.7155 10.4961 42.6504 10.3008C42.5918 10.099 42.4974 9.93945 42.3672 9.82227C42.2435 9.69857 42.0807 9.63672 41.8789 9.63672C41.6836 9.63672 41.5208 9.69857 41.3906 9.82227C41.2669 9.93945 41.1725 10.099 41.1074 10.3008C41.0423 10.4961 41.0098 10.7077 41.0098 10.9355ZM42.6016 2.24414L36.7715 13.3574L35.4629 12.6152L41.293 1.50195L42.6016 2.24414Z" fill="black"/>
</svg>
