<svg width="54" height="15" viewBox="0 0 54 15" fill="none" xmlns="http://www.w3.org/2000/svg">
<path d="M8.60352 12.1465V14.4219H0.224609V12.4785L4.07227 7.58594C4.44336 7.07812 4.73307 6.62891 4.94141 6.23828C5.14974 5.84766 5.29948 5.49935 5.39062 5.19336C5.48177 4.88086 5.52734 4.58464 5.52734 4.30469C5.52734 3.88802 5.47852 3.52995 5.38086 3.23047C5.2832 2.92448 5.13672 2.6901 4.94141 2.52734C4.7526 2.35807 4.51823 2.27344 4.23828 2.27344C3.89974 2.27344 3.61979 2.3776 3.39844 2.58594C3.17708 2.79427 3.01107 3.08073 2.90039 3.44531C2.79622 3.80339 2.74414 4.21029 2.74414 4.66602H0C0 3.81966 0.172526 3.04167 0.517578 2.33203C0.869141 1.61589 1.36068 1.04948 1.99219 0.632812C2.63021 0.209635 3.39518 -0.00195312 4.28711 -0.00195312C5.15299 -0.00195312 5.88216 0.160807 6.47461 0.486328C7.06706 0.811849 7.51302 1.27734 7.8125 1.88281C8.11849 2.48177 8.27148 3.20117 8.27148 4.04102C8.27148 4.50977 8.20964 4.96875 8.08594 5.41797C7.96224 5.86068 7.78646 6.30339 7.55859 6.74609C7.33073 7.18229 7.04753 7.62826 6.70898 8.08398C6.37695 8.53971 6.00586 9.01172 5.5957 9.5L3.74023 12.1465H8.60352ZM15.416 0.173828V14.4219H12.6719V3.5332L9.95703 4.57812V2.29297L15.1133 0.173828H15.416ZM23.4688 7.18555V9.46094H18.7129V7.18555H23.4688ZM27.166 7.97656L24.9785 7.42969L25.6914 0.203125H32.5566V2.54688H27.9375L27.6738 5.60352C27.8236 5.49935 28.0449 5.38542 28.3379 5.26172C28.6374 5.13802 28.9694 5.07617 29.334 5.07617C29.9264 5.07617 30.4473 5.18359 30.8965 5.39844C31.3522 5.61328 31.7363 5.92578 32.0488 6.33594C32.3613 6.74609 32.599 7.2474 32.7617 7.83984C32.9245 8.43229 33.0059 9.10286 33.0059 9.85156C33.0059 10.4831 32.9212 11.0853 32.752 11.6582C32.5827 12.2311 32.3223 12.7389 31.9707 13.1816C31.6191 13.6243 31.1829 13.9759 30.6621 14.2363C30.1478 14.4902 29.5391 14.6172 28.8359 14.6172C28.3086 14.6172 27.8008 14.526 27.3125 14.3438C26.8242 14.1615 26.3848 13.8913 25.9941 13.5332C25.6035 13.1686 25.291 12.7324 25.0566 12.2246C24.8223 11.7103 24.7051 11.1243 24.7051 10.4668H27.4102C27.4427 10.8509 27.5176 11.1829 27.6348 11.4629C27.7585 11.7428 27.9212 11.9609 28.123 12.1172C28.3249 12.2669 28.5592 12.3418 28.8262 12.3418C29.0931 12.3418 29.3177 12.2767 29.5 12.1465C29.6888 12.0098 29.8385 11.821 29.9492 11.5801C30.0599 11.3392 30.138 11.0592 30.1836 10.7402C30.2357 10.4147 30.2617 10.0664 30.2617 9.69531C30.2617 9.31771 30.2292 8.97591 30.1641 8.66992C30.099 8.36393 29.998 8.10026 29.8613 7.87891C29.7246 7.65755 29.5456 7.48828 29.3242 7.37109C29.1094 7.25391 28.8587 7.19531 28.5723 7.19531C28.1686 7.19531 27.8659 7.27995 27.6641 7.44922C27.4688 7.61198 27.3027 7.78776 27.166 7.97656ZM42.0547 6.0625V8.5332C42.0547 9.60091 41.9538 10.5189 41.752 11.2871C41.5501 12.0553 41.2669 12.6868 40.9023 13.1816C40.5378 13.6699 40.1048 14.0312 39.6035 14.2656C39.1022 14.5 38.5488 14.6172 37.9434 14.6172C37.4616 14.6172 37.0091 14.5423 36.5859 14.3926C36.1628 14.2428 35.7786 14.015 35.4336 13.709C35.0951 13.3965 34.8021 13.0026 34.5547 12.5273C34.3138 12.0456 34.1283 11.4759 33.998 10.8184C33.8678 10.1543 33.8027 9.39258 33.8027 8.5332V6.0625C33.8027 4.99479 33.9036 4.08008 34.1055 3.31836C34.3138 2.55013 34.6003 1.92188 34.9648 1.43359C35.3294 0.945312 35.7624 0.58724 36.2637 0.359375C36.7715 0.125 37.3281 0.0078125 37.9336 0.0078125C38.4089 0.0078125 38.8581 0.0826823 39.2812 0.232422C39.7044 0.375651 40.0853 0.60026 40.4238 0.90625C40.7624 1.21224 41.0521 1.60612 41.293 2.08789C41.5404 2.56315 41.7292 3.13281 41.8594 3.79688C41.9896 4.45443 42.0547 5.20964 42.0547 6.0625ZM39.3105 8.91406V5.66211C39.3105 5.16081 39.2878 4.72135 39.2422 4.34375C39.2031 3.96615 39.1445 3.64714 39.0664 3.38672C38.9948 3.1263 38.9004 2.91471 38.7832 2.75195C38.6725 2.58919 38.5456 2.47201 38.4023 2.40039C38.2591 2.32227 38.1029 2.2832 37.9336 2.2832C37.7188 2.2832 37.5267 2.3418 37.3574 2.45898C37.1882 2.57617 37.0417 2.76823 36.918 3.03516C36.7943 3.29557 36.6999 3.64388 36.6348 4.08008C36.5762 4.50977 36.5469 5.03711 36.5469 5.66211V8.91406C36.5469 9.41536 36.5664 9.85807 36.6055 10.2422C36.651 10.6263 36.7129 10.9551 36.791 11.2285C36.8757 11.4954 36.9701 11.7103 37.0742 11.873C37.1849 12.0358 37.3118 12.1562 37.4551 12.2344C37.6048 12.306 37.7676 12.3418 37.9434 12.3418C38.1517 12.3418 38.3405 12.2832 38.5098 12.166C38.6855 12.0423 38.832 11.847 38.9492 11.5801C39.0664 11.3132 39.1543 10.9616 39.2129 10.5254C39.278 10.0827 39.3105 9.54557 39.3105 8.91406ZM42.9492 3.68945V2.9375C42.9492 2.39714 43.0469 1.9056 43.2422 1.46289C43.444 1.02018 43.7402 0.665365 44.1309 0.398438C44.528 0.13151 45.013 -0.00195312 45.5859 -0.00195312C46.1849 -0.00195312 46.6829 0.13151 47.0801 0.398438C47.4837 0.665365 47.7799 1.02018 47.9688 1.46289C48.1641 1.9056 48.2617 2.39714 48.2617 2.9375V3.68945C48.2617 4.2168 48.1641 4.70182 47.9688 5.14453C47.7734 5.58724 47.4772 5.94206 47.0801 6.20898C46.6895 6.47591 46.1979 6.60938 45.6055 6.60938C45.026 6.60938 44.5378 6.47591 44.1406 6.20898C43.7435 5.94206 43.444 5.58724 43.2422 5.14453C43.0469 4.70182 42.9492 4.2168 42.9492 3.68945ZM44.7363 2.9375V3.68945C44.7363 3.91081 44.7689 4.1224 44.834 4.32422C44.8991 4.51953 44.9967 4.67904 45.127 4.80273C45.2572 4.91992 45.4167 4.97852 45.6055 4.97852C45.8073 4.97852 45.9701 4.91992 46.0938 4.80273C46.224 4.67904 46.3184 4.51953 46.377 4.32422C46.4355 4.1224 46.4648 3.91081 46.4648 3.68945V2.9375C46.4648 2.70964 46.4323 2.49479 46.3672 2.29297C46.3086 2.09115 46.2142 1.93164 46.084 1.81445C45.9603 1.69076 45.7943 1.62891 45.5859 1.62891C45.4036 1.62891 45.2474 1.69076 45.1172 1.81445C44.987 1.93164 44.8893 2.09115 44.8242 2.29297C44.7656 2.49479 44.7363 2.70964 44.7363 2.9375ZM48.5547 11.6875V10.9355C48.5547 10.4017 48.6556 9.91341 48.8574 9.4707C49.0658 9.02799 49.3652 8.67318 49.7559 8.40625C50.153 8.13932 50.6413 8.00586 51.2207 8.00586C51.8132 8.00586 52.3047 8.13932 52.6953 8.40625C53.0924 8.67318 53.3887 9.02799 53.584 9.4707C53.7858 9.91341 53.8867 10.4017 53.8867 10.9355V11.6875C53.8867 12.2214 53.7891 12.7096 53.5938 13.1523C53.3984 13.5951 53.1022 13.9499 52.7051 14.2168C52.3145 14.4837 51.8262 14.6172 51.2402 14.6172C50.6543 14.6172 50.1595 14.4837 49.7559 14.2168C49.3587 13.9499 49.0592 13.5951 48.8574 13.1523C48.6556 12.7096 48.5547 12.2214 48.5547 11.6875ZM50.3516 10.9355V11.6875C50.3516 11.9089 50.3906 12.1204 50.4688 12.3223C50.5469 12.5241 50.651 12.6868 50.7812 12.8105C50.918 12.9277 51.071 12.9863 51.2402 12.9863C51.4746 12.9863 51.6536 12.9277 51.7773 12.8105C51.901 12.6868 51.9824 12.5273 52.0215 12.332C52.0671 12.1302 52.0898 11.9154 52.0898 11.6875V10.9355C52.0898 10.7077 52.0573 10.4961 51.9922 10.3008C51.9336 10.099 51.8392 9.93945 51.709 9.82227C51.5853 9.69857 51.4225 9.63672 51.2207 9.63672C51.0254 9.63672 50.8626 9.69857 50.7324 9.82227C50.6087 9.93945 50.5143 10.099 50.4492 10.3008C50.3841 10.4961 50.3516 10.7077 50.3516 10.9355ZM51.9434 2.24414L46.1133 13.3574L44.8047 12.6152L50.6348 1.50195L51.9434 2.24414Z" fill="black"/>
</svg>
