<svg width="63" height="15" viewBox="0 0 63 15" fill="none" xmlns="http://www.w3.org/2000/svg">
<path d="M2.46094 7.97656L0.273438 7.42969L0.986328 0.203125H7.85156V2.54688H3.23242L2.96875 5.60352C3.11849 5.49935 3.33984 5.38542 3.63281 5.26172C3.93229 5.13802 4.26432 5.07617 4.62891 5.07617C5.22135 5.07617 5.74219 5.18359 6.19141 5.39844C6.64714 5.61328 7.03125 5.92578 7.34375 6.33594C7.65625 6.74609 7.89388 7.2474 8.05664 7.83984C8.2194 8.43229 8.30078 9.10286 8.30078 9.85156C8.30078 10.4831 8.21615 11.0853 8.04688 11.6582C7.8776 12.2311 7.61719 12.7389 7.26562 13.1816C6.91406 13.6243 6.47786 13.9759 5.95703 14.2363C5.44271 14.4902 4.83398 14.6172 4.13086 14.6172C3.60352 14.6172 3.0957 14.526 2.60742 14.3438C2.11914 14.1615 1.67969 13.8913 1.28906 13.5332C0.898438 13.1686 0.585938 12.7324 0.351562 12.2246C0.117188 11.7103 0 11.1243 0 10.4668H2.70508C2.73763 10.8509 2.8125 11.1829 2.92969 11.4629C3.05339 11.7428 3.21615 11.9609 3.41797 12.1172C3.61979 12.2669 3.85417 12.3418 4.12109 12.3418C4.38802 12.3418 4.61263 12.2767 4.79492 12.1465C4.98372 12.0098 5.13346 11.821 5.24414 11.5801C5.35482 11.3392 5.43294 11.0592 5.47852 10.7402C5.5306 10.4147 5.55664 10.0664 5.55664 9.69531C5.55664 9.31771 5.52409 8.97591 5.45898 8.66992C5.39388 8.36393 5.29297 8.10026 5.15625 7.87891C5.01953 7.65755 4.84049 7.48828 4.61914 7.37109C4.4043 7.25391 4.15365 7.19531 3.86719 7.19531C3.46354 7.19531 3.16081 7.27995 2.95898 7.44922C2.76367 7.61198 2.59766 7.78776 2.46094 7.97656ZM15.1719 0.173828V14.4219H12.4277V3.5332L9.71289 4.57812V2.29297L14.8691 0.173828H15.1719ZM23.2246 7.18555V9.46094H18.4688V7.18555H23.2246ZM30.5156 0.173828V14.4219H27.7715V3.5332L25.0566 4.57812V2.29297L30.2129 0.173828H30.5156ZM41.8105 6.0625V8.5332C41.8105 9.60091 41.7096 10.5189 41.5078 11.2871C41.306 12.0553 41.0228 12.6868 40.6582 13.1816C40.2936 13.6699 39.8607 14.0312 39.3594 14.2656C38.8581 14.5 38.3047 14.6172 37.6992 14.6172C37.2174 14.6172 36.765 14.5423 36.3418 14.3926C35.9186 14.2428 35.5345 14.015 35.1895 13.709C34.8509 13.3965 34.5579 13.0026 34.3105 12.5273C34.0697 12.0456 33.8841 11.4759 33.7539 10.8184C33.6237 10.1543 33.5586 9.39258 33.5586 8.5332V6.0625C33.5586 4.99479 33.6595 4.08008 33.8613 3.31836C34.0697 2.55013 34.3561 1.92188 34.7207 1.43359C35.0853 0.945312 35.5182 0.58724 36.0195 0.359375C36.5273 0.125 37.084 0.0078125 37.6895 0.0078125C38.1647 0.0078125 38.6139 0.0826823 39.0371 0.232422C39.4603 0.375651 39.8411 0.60026 40.1797 0.90625C40.5182 1.21224 40.8079 1.60612 41.0488 2.08789C41.2962 2.56315 41.485 3.13281 41.6152 3.79688C41.7454 4.45443 41.8105 5.20964 41.8105 6.0625ZM39.0664 8.91406V5.66211C39.0664 5.16081 39.0436 4.72135 38.998 4.34375C38.959 3.96615 38.9004 3.64714 38.8223 3.38672C38.7507 3.1263 38.6562 2.91471 38.5391 2.75195C38.4284 2.58919 38.3014 2.47201 38.1582 2.40039C38.015 2.32227 37.8587 2.2832 37.6895 2.2832C37.4746 2.2832 37.2826 2.3418 37.1133 2.45898C36.944 2.57617 36.7975 2.76823 36.6738 3.03516C36.5501 3.29557 36.4557 3.64388 36.3906 4.08008C36.332 4.50977 36.3027 5.03711 36.3027 5.66211V8.91406C36.3027 9.41536 36.3223 9.85807 36.3613 10.2422C36.4069 10.6263 36.4688 10.9551 36.5469 11.2285C36.6315 11.4954 36.7259 11.7103 36.8301 11.873C36.9408 12.0358 37.0677 12.1562 37.2109 12.2344C37.3607 12.306 37.5234 12.3418 37.6992 12.3418C37.9076 12.3418 38.0964 12.2832 38.2656 12.166C38.4414 12.0423 38.5879 11.847 38.7051 11.5801C38.8223 11.3132 38.9102 10.9616 38.9688 10.5254C39.0339 10.0827 39.0664 9.54557 39.0664 8.91406ZM50.9277 6.0625V8.5332C50.9277 9.60091 50.8268 10.5189 50.625 11.2871C50.4232 12.0553 50.14 12.6868 49.7754 13.1816C49.4108 13.6699 48.9779 14.0312 48.4766 14.2656C47.9753 14.5 47.4219 14.6172 46.8164 14.6172C46.3346 14.6172 45.8822 14.5423 45.459 14.3926C45.0358 14.2428 44.6517 14.015 44.3066 13.709C43.9681 13.3965 43.6751 13.0026 43.4277 12.5273C43.1868 12.0456 43.0013 11.4759 42.8711 10.8184C42.7409 10.1543 42.6758 9.39258 42.6758 8.5332V6.0625C42.6758 4.99479 42.7767 4.08008 42.9785 3.31836C43.1868 2.55013 43.4733 1.92188 43.8379 1.43359C44.2025 0.945312 44.6354 0.58724 45.1367 0.359375C45.6445 0.125 46.2012 0.0078125 46.8066 0.0078125C47.2819 0.0078125 47.7311 0.0826823 48.1543 0.232422C48.5775 0.375651 48.9583 0.60026 49.2969 0.90625C49.6354 1.21224 49.9251 1.60612 50.166 2.08789C50.4134 2.56315 50.6022 3.13281 50.7324 3.79688C50.8626 4.45443 50.9277 5.20964 50.9277 6.0625ZM48.1836 8.91406V5.66211C48.1836 5.16081 48.1608 4.72135 48.1152 4.34375C48.0762 3.96615 48.0176 3.64714 47.9395 3.38672C47.8678 3.1263 47.7734 2.91471 47.6562 2.75195C47.5456 2.58919 47.4186 2.47201 47.2754 2.40039C47.1322 2.32227 46.9759 2.2832 46.8066 2.2832C46.5918 2.2832 46.3997 2.3418 46.2305 2.45898C46.0612 2.57617 45.9147 2.76823 45.791 3.03516C45.6673 3.29557 45.5729 3.64388 45.5078 4.08008C45.4492 4.50977 45.4199 5.03711 45.4199 5.66211V8.91406C45.4199 9.41536 45.4395 9.85807 45.4785 10.2422C45.5241 10.6263 45.5859 10.9551 45.6641 11.2285C45.7487 11.4954 45.8431 11.7103 45.9473 11.873C46.0579 12.0358 46.1849 12.1562 46.3281 12.2344C46.4779 12.306 46.6406 12.3418 46.8164 12.3418C47.0247 12.3418 47.2135 12.2832 47.3828 12.166C47.5586 12.0423 47.7051 11.847 47.8223 11.5801C47.9395 11.3132 48.0273 10.9616 48.0859 10.5254C48.151 10.0827 48.1836 9.54557 48.1836 8.91406ZM51.8223 3.68945V2.9375C51.8223 2.39714 51.9199 1.9056 52.1152 1.46289C52.3171 1.02018 52.6133 0.665365 53.0039 0.398438C53.401 0.13151 53.8861 -0.00195312 54.459 -0.00195312C55.0579 -0.00195312 55.556 0.13151 55.9531 0.398438C56.3568 0.665365 56.653 1.02018 56.8418 1.46289C57.0371 1.9056 57.1348 2.39714 57.1348 2.9375V3.68945C57.1348 4.2168 57.0371 4.70182 56.8418 5.14453C56.6465 5.58724 56.3503 5.94206 55.9531 6.20898C55.5625 6.47591 55.071 6.60938 54.4785 6.60938C53.8991 6.60938 53.4108 6.47591 53.0137 6.20898C52.6165 5.94206 52.3171 5.58724 52.1152 5.14453C51.9199 4.70182 51.8223 4.2168 51.8223 3.68945ZM53.6094 2.9375V3.68945C53.6094 3.91081 53.6419 4.1224 53.707 4.32422C53.7721 4.51953 53.8698 4.67904 54 4.80273C54.1302 4.91992 54.2897 4.97852 54.4785 4.97852C54.6803 4.97852 54.8431 4.91992 54.9668 4.80273C55.097 4.67904 55.1914 4.51953 55.25 4.32422C55.3086 4.1224 55.3379 3.91081 55.3379 3.68945V2.9375C55.3379 2.70964 55.3053 2.49479 55.2402 2.29297C55.1816 2.09115 55.0872 1.93164 54.957 1.81445C54.8333 1.69076 54.6673 1.62891 54.459 1.62891C54.2767 1.62891 54.1204 1.69076 53.9902 1.81445C53.86 1.93164 53.7624 2.09115 53.6973 2.29297C53.6387 2.49479 53.6094 2.70964 53.6094 2.9375ZM57.4277 11.6875V10.9355C57.4277 10.4017 57.5286 9.91341 57.7305 9.4707C57.9388 9.02799 58.2383 8.67318 58.6289 8.40625C59.026 8.13932 59.5143 8.00586 60.0938 8.00586C60.6862 8.00586 61.1777 8.13932 61.5684 8.40625C61.9655 8.67318 62.2617 9.02799 62.457 9.4707C62.6589 9.91341 62.7598 10.4017 62.7598 10.9355V11.6875C62.7598 12.2214 62.6621 12.7096 62.4668 13.1523C62.2715 13.5951 61.9753 13.9499 61.5781 14.2168C61.1875 14.4837 60.6992 14.6172 60.1133 14.6172C59.5273 14.6172 59.0326 14.4837 58.6289 14.2168C58.2318 13.9499 57.9323 13.5951 57.7305 13.1523C57.5286 12.7096 57.4277 12.2214 57.4277 11.6875ZM59.2246 10.9355V11.6875C59.2246 11.9089 59.2637 12.1204 59.3418 12.3223C59.4199 12.5241 59.5241 12.6868 59.6543 12.8105C59.791 12.9277 59.944 12.9863 60.1133 12.9863C60.3477 12.9863 60.5267 12.9277 60.6504 12.8105C60.7741 12.6868 60.8555 12.5273 60.8945 12.332C60.9401 12.1302 60.9629 11.9154 60.9629 11.6875V10.9355C60.9629 10.7077 60.9303 10.4961 60.8652 10.3008C60.8066 10.099 60.7122 9.93945 60.582 9.82227C60.4583 9.69857 60.2956 9.63672 60.0938 9.63672C59.8984 9.63672 59.7357 9.69857 59.6055 9.82227C59.4818 9.93945 59.3874 10.099 59.3223 10.3008C59.2572 10.4961 59.2246 10.7077 59.2246 10.9355ZM60.8164 2.24414L54.9863 13.3574L53.6777 12.6152L59.5078 1.50195L60.8164 2.24414Z" fill="black"/>
</svg>
