<svg width="181" height="181" viewBox="0 0 181 181" fill="none" xmlns="http://www.w3.org/2000/svg">
<g filter="url(#filter0_d_4544_3312)">
<circle cx="90.2499" cy="91.6562" r="73.328" fill="white"/>
<circle cx="90.2499" cy="91.6562" r="72.623" stroke="#C2C2C2" stroke-width="1.41015"/>
</g>
<path d="M146.597 137.328C132.534 154.712 111.099 164.992 90.2478 164.992C69.5053 164.992 48.0001 154.634 33.8496 137.328" stroke="#EA0000" stroke-width="4.23046" stroke-linecap="round"/>
<path d="M87.6875 25.4209C93.4522 24.9426 97.795 26.3768 100.896 28.2129L100.922 28.2266C103.236 29.5078 104.827 30.9908 105.835 32.1436C106.339 32.72 106.698 33.2129 106.926 33.5557C107.04 33.7269 107.121 33.861 107.172 33.9482C107.197 33.9918 107.216 34.0236 107.227 34.043C107.232 34.0526 107.236 34.0593 107.237 34.0625V34.0615L107.496 34.5576L108.05 34.5957H108.048L108.05 34.5967H108.052C108.061 34.5977 108.081 34.5996 108.109 34.6035C108.166 34.6114 108.258 34.6265 108.379 34.6533C108.622 34.707 108.981 34.8081 109.407 34.9932C110.256 35.3614 111.386 36.0675 112.426 37.4277C114.502 40.1432 116.367 45.672 114.508 56.8545C114.31 57.9867 113.988 59.133 113.583 60.2979L113.071 61.7676L114.621 61.6221C115.074 61.5794 115.471 61.6216 115.785 61.7588C116.073 61.8845 116.355 62.1153 116.569 62.5898C117.04 63.6309 117.177 65.8335 115.944 70.1816H115.943C115.052 73.3327 114.216 75.2709 113.488 76.4121C112.748 77.5743 112.242 77.7289 112.067 77.7432L111.281 77.8076L111.161 78.5869C110.03 85.875 104.164 95.1687 95.084 98.4473C91.3547 99.7809 87.251 99.7817 83.5186 98.4717H83.5195C74.298 95.2226 68.6333 85.9156 67.5 78.5869L67.3789 77.8076L66.5928 77.7432L66.5107 77.7295C66.2846 77.6747 65.8181 77.4313 65.1758 76.4219C64.4528 75.2857 63.6221 73.3499 62.7441 70.1865L62.7422 70.1816L62.5273 69.3906C61.5282 65.5626 61.6754 63.5659 62.1162 62.5898C62.3305 62.1155 62.6125 61.8846 62.9004 61.7588C63.2148 61.6215 63.6121 61.5794 64.0654 61.6221L65.6357 61.7695L65.0996 60.2861C64.6742 59.1099 64.3754 57.99 64.1768 56.8477L64.1758 56.8398L64.1738 56.8311C63.4023 52.7932 63.1939 49.1736 64.1055 45.749L64.1104 45.7334L64.1143 45.7168C65.1864 41.0795 67.7095 37.3157 70.5703 34.4043L70.5879 34.3867C72.3859 32.4621 74.4362 30.766 76.6094 29.4014L76.627 29.3906L76.6436 29.3789C78.4172 28.1627 80.3467 27.1143 82.4326 26.4189C84.0763 25.8711 85.8178 25.5224 87.6592 25.4229L87.6738 25.4219L87.6875 25.4209Z" stroke="#C2C2C2" stroke-width="2"/>
<path d="M133.161 110.924C119.596 107.474 108.565 99.7109 108.565 99.7109L99.9658 126.921L98.3452 132.044L98.3191 131.966L96.9076 136.305L92.3596 123.418C103.521 107.84 90.1117 107.997 89.3537 108.023C88.5956 107.997 75.1867 107.84 86.3478 123.418L81.7997 136.305L80.3882 131.966L80.3621 132.044L78.7415 126.921L70.142 99.7109C70.142 99.7109 59.1116 107.474 45.5458 110.924C35.4303 113.486 34.9337 125.17 35.3519 130.972C35.2996 130.972 35.3839 137.574 35.959 141.024C35.959 141.024 56.2364 155.098 89.3275 155.124C122.419 155.124 142.179 142.264 142.179 142.264C142.78 138.814 143.355 130.972 143.355 130.972C143.774 125.196 143.277 113.512 133.161 110.924Z" fill="#C2C2C2"/>
<path d="M133.161 110.041C119.596 106.591 108.565 98.8281 108.565 98.8281L99.9658 126.038L98.3452 131.161L98.3191 131.083L96.9076 135.422L92.3596 122.536C103.521 106.957 90.1117 107.114 89.3537 107.14C88.5956 107.114 75.1867 106.957 86.3478 122.536L81.7997 135.422L80.3882 131.083L80.3621 131.161L78.7415 126.038L70.142 98.8281C70.142 98.8281 59.1116 106.591 45.5458 110.041C35.4303 112.603 34.9337 124.287 35.3519 130.09C35.2996 130.09 35.3839 136.515 35.959 139.965C35.959 139.965 56.2626 165.498 89.3537 165.524C122.445 165.524 142.426 142.08 142.426 142.08C143.027 138.63 143.355 130.09 143.355 130.09C143.774 124.313 143.277 112.629 133.161 110.041Z" fill="#C2C2C2"/>
<mask id="mask0_4544_3312" style="mask-type:alpha" maskUnits="userSpaceOnUse" x="35" y="98" width="109" height="68">
<path d="M133.161 110.041C119.596 106.591 108.565 98.8281 108.565 98.8281L99.9658 126.038L98.3452 131.161L98.3191 131.083L96.9076 135.422L92.3596 122.536C103.521 106.957 90.1117 107.114 89.3537 107.14C88.5956 107.114 75.1867 106.957 86.3478 122.536L81.7997 135.422L80.3882 131.083L80.3621 131.161L78.7415 126.038L70.142 98.8281C70.142 98.8281 59.1116 106.591 45.5458 110.041C35.4303 112.603 34.9337 124.287 35.3519 130.09C35.2996 130.09 35.3839 136.515 35.959 139.965C35.959 139.965 56.2626 165.498 89.3537 165.524C122.445 165.524 142.426 142.08 142.426 142.08C143.027 138.63 143.355 130.09 143.355 130.09C143.774 124.313 143.277 112.629 133.161 110.041Z" fill="#C2C2C2"/>
</mask>
<g mask="url(#mask0_4544_3312)">
<rect x="32.5137" y="137.328" width="114" height="29" fill="#EA0000"/>
</g>
<g filter="url(#filter1_d_4544_3312)">
<circle cx="147.154" cy="136.969" r="5.64062" fill="white"/>
<circle cx="147.154" cy="136.969" r="4.93554" stroke="#C2C2C2" stroke-width="1.41015"/>
</g>
<g filter="url(#filter2_d_4544_3312)">
<circle cx="33.1543" cy="136.969" r="5.64062" fill="white"/>
<circle cx="33.1543" cy="136.969" r="4.93554" stroke="#C2C2C2" stroke-width="1.41015"/>
</g>
<defs>
<filter id="filter0_d_4544_3312" x="2.08616e-05" y="-0.0038836" width="180.5" height="180.5" filterUnits="userSpaceOnUse" color-interpolation-filters="sRGB">
<feFlood flood-opacity="0" result="BackgroundImageFix"/>
<feColorMatrix in="SourceAlpha" type="matrix" values="0 0 0 0 0 0 0 0 0 0 0 0 0 0 0 0 0 0 127 0" result="hardAlpha"/>
<feMorphology radius="1.41015" operator="dilate" in="SourceAlpha" result="effect1_dropShadow_4544_3312"/>
<feOffset dy="-1.41015"/>
<feGaussianBlur stdDeviation="7.75585"/>
<feComposite in2="hardAlpha" operator="out"/>
<feColorMatrix type="matrix" values="0 0 0 0 0 0 0 0 0 0 0 0 0 0 0 0 0 0 0.1 0"/>
<feBlend mode="normal" in2="BackgroundImageFix" result="effect1_dropShadow_4544_3312"/>
<feBlend mode="normal" in="SourceGraphic" in2="effect1_dropShadow_4544_3312" result="shape"/>
</filter>
<filter id="filter1_d_4544_3312" x="124.592" y="112.996" width="45.125" height="45.125" filterUnits="userSpaceOnUse" color-interpolation-filters="sRGB">
<feFlood flood-opacity="0" result="BackgroundImageFix"/>
<feColorMatrix in="SourceAlpha" type="matrix" values="0 0 0 0 0 0 0 0 0 0 0 0 0 0 0 0 0 0 127 0" result="hardAlpha"/>
<feMorphology radius="1.41015" operator="dilate" in="SourceAlpha" result="effect1_dropShadow_4544_3312"/>
<feOffset dy="-1.41015"/>
<feGaussianBlur stdDeviation="7.75585"/>
<feComposite in2="hardAlpha" operator="out"/>
<feColorMatrix type="matrix" values="0 0 0 0 0 0 0 0 0 0 0 0 0 0 0 0 0 0 0.1 0"/>
<feBlend mode="normal" in2="BackgroundImageFix" result="effect1_dropShadow_4544_3312"/>
<feBlend mode="normal" in="SourceGraphic" in2="effect1_dropShadow_4544_3312" result="shape"/>
</filter>
<filter id="filter2_d_4544_3312" x="10.5918" y="112.996" width="45.125" height="45.125" filterUnits="userSpaceOnUse" color-interpolation-filters="sRGB">
<feFlood flood-opacity="0" result="BackgroundImageFix"/>
<feColorMatrix in="SourceAlpha" type="matrix" values="0 0 0 0 0 0 0 0 0 0 0 0 0 0 0 0 0 0 127 0" result="hardAlpha"/>
<feMorphology radius="1.41015" operator="dilate" in="SourceAlpha" result="effect1_dropShadow_4544_3312"/>
<feOffset dy="-1.41015"/>
<feGaussianBlur stdDeviation="7.75585"/>
<feComposite in2="hardAlpha" operator="out"/>
<feColorMatrix type="matrix" values="0 0 0 0 0 0 0 0 0 0 0 0 0 0 0 0 0 0 0.1 0"/>
<feBlend mode="normal" in2="BackgroundImageFix" result="effect1_dropShadow_4544_3312"/>
<feBlend mode="normal" in="SourceGraphic" in2="effect1_dropShadow_4544_3312" result="shape"/>
</filter>
</defs>
</svg>
