<svg width="109" height="56" viewBox="0 0 109 56" fill="none" xmlns="http://www.w3.org/2000/svg">
<path d="M97.9076 11.2133C84.3418 7.76308 73.3114 0 73.3114 0L64.7119 27.21L63.0913 32.3331L63.0652 32.2547L61.6537 36.5936L57.1057 23.7075C68.2667 8.12902 54.8578 8.28585 54.0998 8.31199C53.3417 8.28585 39.9328 8.12902 51.0938 23.7075L46.5458 36.5936L45.1343 32.2547L45.1082 32.3331L43.4876 27.21L34.8881 0C34.8881 0 23.8577 7.76308 10.2919 11.2133C0.176415 13.7749 -0.320214 25.4587 0.0979986 31.2614C0.0457219 31.2614 0.130034 37.8629 0.705077 41.3131C0.705077 41.3131 20.9825 55.3871 54.0736 55.4132C87.1647 55.4132 106.925 42.5532 106.925 42.5532C107.526 39.1029 108.102 31.2614 108.102 31.2614C108.52 25.4849 108.023 13.801 97.9076 11.2133Z" fill="#C2C2C2"/>
</svg>
