<svg width="110" height="141" viewBox="0 0 110 141" fill="none" xmlns="http://www.w3.org/2000/svg">
<path d="M42.2217 2.86719C49.6973 0.0287038 55.2368 0.892098 58.8789 2.39941C60.7116 3.15793 62.0839 4.08825 62.9932 4.82324C63.4475 5.19054 63.785 5.50844 64.0049 5.72949C64.1145 5.8397 64.1952 5.92536 64.2461 5.98145C64.2715 6.00948 64.2902 6.03077 64.3008 6.04297C64.3047 6.04746 64.3078 6.0506 64.3096 6.05273V6.05371L64.6465 6.45801L65.1709 6.40918C69.4515 6.01381 72.8843 6.88878 75.6172 8.69531C78.3613 10.5094 80.4829 13.318 82.0293 16.9238C85.1343 24.1641 85.8381 34.4263 84.7422 45.501C83.6205 56.8221 86.1641 63.5238 89.1348 67.4189C90.6129 69.357 92.1735 70.5684 93.3799 71.2988C93.5918 71.4271 93.7938 71.5387 93.9814 71.6387C90.0053 75.0267 84.3424 76.7424 79.3818 77.5889C76.69 78.0482 74.2528 78.2441 72.4893 78.3252C71.6082 78.3657 70.8968 78.3772 70.4082 78.3789C70.1641 78.3797 69.9757 78.3788 69.8496 78.377C69.7865 78.376 69.7391 78.3747 69.708 78.374C69.6925 78.3737 69.6811 78.3732 69.6738 78.373H69.665L68.6338 78.3408V85.0078L68.6367 85.043L68.6504 85.2461L54.1396 127.64L39.5879 85.124V78.5381L38.5791 78.5469C28.5 78.6326 22.0451 76.5174 18.1426 74.4355C16.1887 73.3932 14.8646 72.3532 14.0391 71.5898C14.0116 71.5644 13.9854 71.5385 13.959 71.5137C14.0784 71.4659 14.2035 71.4161 14.3311 71.3574C15.5734 70.7863 17.147 69.6883 18.6631 67.5996C21.6812 63.4415 24.4294 55.4213 24.0645 39.8887C23.7054 24.6044 27.0482 15.8643 30.9961 10.7158C34.9405 5.57221 39.5869 3.8736 42.2207 2.86621L42.2217 2.86719Z" stroke="#C2C2C2" stroke-width="2"/>
<path d="M108.283 114.099C107.267 108.499 103.64 103.712 98.5338 101.187L78.9489 91.5255C77.8173 90.9742 76.7148 90.3649 75.6122 89.7556L81.7923 107.977L73.175 107.309L54.1415 130.724L35.1078 107.28L26.4904 107.948L32.7866 89.7266L28.8696 91.7286L9.74893 101.187C4.64234 103.712 1.01551 108.499 0 114.099L1.01636 118C14.8867 130.724 32.5545 140.996 54.1415 140.996C75.7284 140.996 95.8867 130.724 109.792 116.5L108.283 114.099Z" fill="#C2C2C2"/>
</svg>
