<svg width="190" height="181" viewBox="0 0 190 181" fill="none" xmlns="http://www.w3.org/2000/svg">
<g filter="url(#filter0_d_4544_3323)">
<circle cx="94.6581" cy="91.6562" r="73.328" fill="white"/>
<circle cx="94.6581" cy="91.6562" r="72.623" stroke="#C2C2C2" stroke-width="1.41015"/>
</g>
<path d="M137.57 110.924C124.004 107.474 112.974 99.7109 112.974 99.7109L104.374 126.921L102.753 132.044L102.727 131.966L101.316 136.305L96.7678 123.418C107.929 107.84 94.5199 107.997 93.7619 108.023C93.0038 107.997 79.5949 107.84 90.756 123.418L86.2079 136.305L84.7964 131.966L84.7703 132.044L83.1497 126.921L74.5502 99.7109C74.5502 99.7109 63.5198 107.474 49.9541 110.924C39.8385 113.486 39.3419 125.17 39.7601 130.972C39.7078 130.972 39.7921 137.574 40.3672 141.024C40.3672 141.024 60.6446 155.098 93.7357 155.124C126.827 155.124 146.587 142.264 146.587 142.264C147.189 138.814 147.764 130.972 147.764 130.972C148.182 125.196 147.685 113.512 137.57 110.924Z" fill="#C2C2C2"/>
<path d="M112.459 33.5957L111.903 33.5576L111.646 33.0615V33.0625C111.644 33.0593 111.64 33.0526 111.635 33.043C111.624 33.0236 111.606 32.9917 111.58 32.9482C111.529 32.861 111.447 32.727 111.333 32.5557C111.105 32.2129 110.747 31.7198 110.243 31.1436C109.235 29.9908 107.643 28.5079 105.329 27.2266L105.317 27.2197L105.305 27.2129C102.203 25.3768 97.8604 23.9426 92.0957 24.4209L92.0811 24.4219L92.0674 24.4229C90.2259 24.5224 88.4836 24.871 86.8398 25.4189C84.7541 26.1142 82.8252 27.1628 81.0518 28.3789L81.0352 28.3906L81.0176 28.4014C78.8443 29.766 76.7941 31.4621 74.9961 33.3867L74.9785 33.4043C72.1177 36.3158 69.5936 40.0795 68.5215 44.7168L68.5186 44.7334L68.5137 44.749C67.659 47.9597 67.789 51.3417 68.4443 55.0791L68.582 55.8311L68.584 55.8398L68.585 55.8477C68.7836 56.9899 69.0814 58.1099 69.5068 59.2861L70.0439 60.7695L68.4736 60.6221C68.0203 60.5794 67.623 60.6215 67.3086 60.7588C67.0206 60.8846 66.7387 61.1154 66.5244 61.5898C66.0836 62.5659 65.9355 64.5626 66.9346 68.3906L67.1504 69.1816L67.1523 69.1865C68.0304 72.35 68.861 74.2857 69.584 75.4219C70.2266 76.4316 70.6929 76.6748 70.9189 76.7295L71.001 76.7432L71.7871 76.8076L71.9072 77.5869C73.0405 84.9157 78.7061 94.2227 87.9277 97.4717H87.9268C91.6591 98.7817 95.762 98.7808 99.4912 97.4473C108.572 94.1689 114.437 84.8752 115.568 77.5869L115.689 76.8076L116.476 76.7432C116.651 76.7288 117.156 76.5741 117.896 75.4121C118.624 74.2709 119.46 72.3327 120.352 69.1816L120.567 68.3906C121.567 64.5623 121.418 62.5658 120.978 61.5898C120.763 61.1153 120.481 60.8845 120.193 60.7588C119.879 60.6216 119.483 60.5794 119.029 60.6221L117.479 60.7676L117.991 59.2979C118.397 58.1306 118.72 56.9821 118.917 55.8477C120.774 44.6697 118.91 39.1426 116.834 36.4277C115.794 35.0672 114.663 34.3613 113.814 33.9932C113.388 33.8082 113.03 33.707 112.787 33.6533C112.666 33.6266 112.574 33.6114 112.518 33.6035C112.489 33.5996 112.47 33.5977 112.46 33.5967L112.459 33.5957ZM112.459 33.5957C112.458 33.5956 112.457 33.5958 112.456 33.5957L112.458 33.5967H112.459V33.5957ZM113.525 99.3965C113.772 99.5563 114.057 99.7382 114.378 99.9395C115.641 100.732 117.464 101.822 119.714 103.021C124.21 105.415 130.436 108.255 137.322 110.007V110.008C141.96 111.194 144.407 114.44 145.669 118.187C146.943 121.969 146.972 126.18 146.767 129.015L146.765 129.031V129.05C146.765 129.051 146.764 129.052 146.764 129.054C146.764 129.058 146.764 129.064 146.764 129.072C146.763 129.088 146.762 129.112 146.761 129.144C146.758 129.206 146.754 129.299 146.749 129.418C146.739 129.657 146.724 130.002 146.704 130.428C146.664 131.279 146.605 132.45 146.526 133.728C146.377 136.167 146.159 138.937 145.891 140.634C145.88 140.646 145.869 140.659 145.857 140.672C145.709 140.837 145.485 141.081 145.187 141.395C144.589 142.021 143.695 142.922 142.518 144.005C140.162 146.171 136.676 149.064 132.167 151.958C123.147 157.747 110.065 163.521 93.7617 163.521C77.4809 163.507 64.3286 157.221 55.2256 150.91C50.6759 147.756 47.1475 144.603 44.7598 142.241C43.5663 141.061 42.6585 140.079 42.0518 139.396C41.7485 139.054 41.5201 138.787 41.3691 138.606C41.3494 138.583 41.3315 138.561 41.3145 138.54C41.0626 136.894 40.909 134.619 40.8271 132.688C40.7843 131.679 40.7614 130.777 40.752 130.13C40.7517 130.115 40.7521 130.101 40.752 130.087H40.835L40.7578 129.015C40.5525 126.166 40.5803 121.949 41.8545 118.167C43.1164 114.421 45.5625 111.182 50.1992 110.008H50.2002C57.0867 108.256 63.3137 105.415 67.8096 103.021C70.06 101.822 71.8837 100.732 73.1465 99.9395C73.4668 99.7385 73.7508 99.5561 73.9971 99.3965L83.8164 130.46L84.7451 133.396L84.7842 133.276L85.2568 134.729L86.1689 137.533L87.1504 134.752L91.6992 121.865L91.8721 121.374L91.5693 120.95C88.8194 117.112 87.6699 114.358 87.4014 112.415C87.142 110.538 87.7007 109.43 88.4697 108.716C89.2954 107.949 90.4784 107.534 91.5889 107.324C92.6819 107.117 93.5831 107.132 93.7275 107.137L93.7617 107.138L93.7959 107.137C93.9403 107.132 94.8417 107.117 95.9346 107.324C97.045 107.534 98.2281 107.95 99.0537 108.716C99.8227 109.43 100.382 110.538 100.123 112.415C99.8546 114.358 98.7049 117.112 95.9551 120.95L95.6514 121.374L95.8252 121.865L100.373 134.752L101.354 137.533L102.267 134.729L102.738 133.277L102.778 133.396L103.707 130.46L113.525 99.3965Z" fill="white" stroke="#C2C2C2" stroke-width="2"/>
<mask id="mask0_4544_3323" style="mask-type:alpha" maskUnits="userSpaceOnUse" x="39" y="23" width="109" height="142">
<path d="M118.935 59.6261C119.354 58.4237 119.693 57.2213 119.903 56.019C123.666 33.3832 112.532 32.599 112.532 32.599C112.532 32.599 110.676 29.0442 105.814 26.352C102.547 24.4178 97.9986 22.9279 92.013 23.4245C90.0787 23.5291 88.2491 23.895 86.5239 24.47C84.3283 25.2019 82.3157 26.2997 80.486 27.5544C78.2381 28.9658 76.1209 30.7171 74.2651 32.7036C71.3114 35.7095 68.6715 39.6303 67.5475 44.492C66.5804 48.1252 66.8156 51.9153 67.5998 56.019C67.8089 57.2213 68.1225 58.3976 68.5669 59.6261C66.3451 59.417 63.7052 60.6977 66.1883 69.4541C67.9657 75.8579 69.6386 77.6354 70.9193 77.7399C72.0956 85.3462 77.9506 95.0173 87.5956 98.4153C91.5425 99.8006 95.8814 99.8006 99.8283 98.3892C109.317 94.965 115.381 85.32 116.557 77.7399C117.838 77.6354 119.51 75.8318 121.314 69.4541C123.797 60.6977 121.157 59.417 118.935 59.6261Z" fill="#C2C2C2"/>
<path d="M137.57 109.039C124.004 105.588 112.974 97.8254 112.974 97.8254L102.753 130.159L102.727 130.08L101.316 134.419L96.7678 121.533C107.929 105.954 94.5199 106.111 93.7619 106.137C93.0038 106.111 79.5949 105.954 90.756 121.533L86.2079 134.419L84.7964 130.08L84.7703 130.159L74.5502 97.8254C74.5502 97.8254 63.5198 105.588 49.9541 109.039C39.8385 111.6 39.3419 123.284 39.7601 129.087C39.7078 129.087 39.7921 135.512 40.3672 138.962C40.3672 138.962 60.6708 164.495 93.7619 164.521C126.853 164.521 146.834 141.077 146.834 141.077C147.435 137.627 147.764 129.087 147.764 129.087C148.182 123.31 147.685 111.626 137.57 109.039Z" fill="#FFC300"/>
</mask>
<g mask="url(#mask0_4544_3323)">
<rect x="37.9219" y="91.3281" width="114" height="74" fill="#FFC300"/>
</g>
<path d="M166.969 92.3281C166.752 135.672 129.87 164.992 94.6562 164.992C59.499 164.992 22.151 135.235 22.1367 92.3281" stroke="#FFC300" stroke-width="4.23046" stroke-linecap="round"/>
<g filter="url(#filter1_d_4544_3323)">
<circle cx="166.562" cy="91.9687" r="5.64062" fill="white"/>
<circle cx="166.562" cy="91.9687" r="4.93554" stroke="#C2C2C2" stroke-width="1.41015"/>
</g>
<g filter="url(#filter2_d_4544_3323)">
<circle cx="22.5625" cy="91.9687" r="5.64062" fill="white"/>
<circle cx="22.5625" cy="91.9687" r="4.93554" stroke="#C2C2C2" stroke-width="1.41015"/>
</g>
<defs>
<filter id="filter0_d_4544_3323" x="4.40822" y="-0.0038836" width="180.5" height="180.5" filterUnits="userSpaceOnUse" color-interpolation-filters="sRGB">
<feFlood flood-opacity="0" result="BackgroundImageFix"/>
<feColorMatrix in="SourceAlpha" type="matrix" values="0 0 0 0 0 0 0 0 0 0 0 0 0 0 0 0 0 0 127 0" result="hardAlpha"/>
<feMorphology radius="1.41015" operator="dilate" in="SourceAlpha" result="effect1_dropShadow_4544_3323"/>
<feOffset dy="-1.41015"/>
<feGaussianBlur stdDeviation="7.75585"/>
<feComposite in2="hardAlpha" operator="out"/>
<feColorMatrix type="matrix" values="0 0 0 0 0 0 0 0 0 0 0 0 0 0 0 0 0 0 0.1 0"/>
<feBlend mode="normal" in2="BackgroundImageFix" result="effect1_dropShadow_4544_3323"/>
<feBlend mode="normal" in="SourceGraphic" in2="effect1_dropShadow_4544_3323" result="shape"/>
</filter>
<filter id="filter1_d_4544_3323" x="144" y="67.9961" width="45.125" height="45.125" filterUnits="userSpaceOnUse" color-interpolation-filters="sRGB">
<feFlood flood-opacity="0" result="BackgroundImageFix"/>
<feColorMatrix in="SourceAlpha" type="matrix" values="0 0 0 0 0 0 0 0 0 0 0 0 0 0 0 0 0 0 127 0" result="hardAlpha"/>
<feMorphology radius="1.41015" operator="dilate" in="SourceAlpha" result="effect1_dropShadow_4544_3323"/>
<feOffset dy="-1.41015"/>
<feGaussianBlur stdDeviation="7.75585"/>
<feComposite in2="hardAlpha" operator="out"/>
<feColorMatrix type="matrix" values="0 0 0 0 0 0 0 0 0 0 0 0 0 0 0 0 0 0 0.1 0"/>
<feBlend mode="normal" in2="BackgroundImageFix" result="effect1_dropShadow_4544_3323"/>
<feBlend mode="normal" in="SourceGraphic" in2="effect1_dropShadow_4544_3323" result="shape"/>
</filter>
<filter id="filter2_d_4544_3323" x="2.08616e-05" y="67.9961" width="45.125" height="45.125" filterUnits="userSpaceOnUse" color-interpolation-filters="sRGB">
<feFlood flood-opacity="0" result="BackgroundImageFix"/>
<feColorMatrix in="SourceAlpha" type="matrix" values="0 0 0 0 0 0 0 0 0 0 0 0 0 0 0 0 0 0 127 0" result="hardAlpha"/>
<feMorphology radius="1.41015" operator="dilate" in="SourceAlpha" result="effect1_dropShadow_4544_3323"/>
<feOffset dy="-1.41015"/>
<feGaussianBlur stdDeviation="7.75585"/>
<feComposite in2="hardAlpha" operator="out"/>
<feColorMatrix type="matrix" values="0 0 0 0 0 0 0 0 0 0 0 0 0 0 0 0 0 0 0.1 0"/>
<feBlend mode="normal" in2="BackgroundImageFix" result="effect1_dropShadow_4544_3323"/>
<feBlend mode="normal" in="SourceGraphic" in2="effect1_dropShadow_4544_3323" result="shape"/>
</filter>
</defs>
</svg>
