<svg width="110" height="141" viewBox="0 0 110 141" fill="none" xmlns="http://www.w3.org/2000/svg">
<mask id="mask0_4584_5781" style="mask-type:alpha" maskUnits="userSpaceOnUse" x="0" y="0" width="110" height="141">
<path d="M69.6338 84.9721V79.3723C69.6338 79.3723 87.3618 79.9236 95.776 71.3352C95.776 71.3352 83.5318 67.8534 85.7369 45.5992C87.9421 23.3159 82.9805 3.76 65.0785 5.41383C65.0785 5.41383 57.3025 -3.9289 41.8667 1.93207C36.557 3.9631 22.3398 9.04067 23.0652 39.9123C23.7906 70.7839 12.0977 70.958 12.0977 70.958C12.0977 70.958 18.1327 79.7205 38.5881 79.5464V85.2913L54.1399 130.728L69.6628 85.3783L69.6338 84.9721Z" fill="#C2C2C2"/>
<path d="M108.283 114.099C107.267 108.499 103.64 103.712 98.5338 101.187L78.9489 91.5255C77.8173 90.9742 76.7148 90.3649 75.6122 89.7556L81.7923 107.977L73.175 107.309L54.1415 130.724L35.1078 107.28L26.4904 107.948L32.7866 89.7266L28.8696 91.7286L9.74893 101.187C4.64234 103.712 1.01551 108.499 0 114.099L1.01636 118C14.8867 130.724 32.5545 140.996 54.1415 140.996C75.7284 140.996 95.8867 130.724 109.792 116.5L108.283 114.099Z" fill="#C2C2C2"/>
</mask>
<g mask="url(#mask0_4584_5781)">
<rect x="-2" y="112" width="114" height="29" fill="#EA0000"/>
</g>
</svg>
