<svg width="109" height="142" viewBox="0 0 109 142" fill="none" xmlns="http://www.w3.org/2000/svg">
<mask id="mask0_4544_3333" style="mask-type:alpha" maskUnits="userSpaceOnUse" x="0" y="0" width="109" height="142">
<path d="M79.2733 36.2979C79.6915 35.0956 80.0313 33.8932 80.2404 32.6908C84.0043 10.0551 72.8694 9.27092 72.8694 9.27092C72.8694 9.27092 71.0136 5.71611 66.1519 3.02386C62.8846 1.08963 58.3365 -0.400255 52.3509 0.096373C50.4166 0.200926 48.5869 0.566863 46.8618 1.14191C44.6662 1.87378 42.6535 2.97159 40.8239 4.22623C38.576 5.63769 36.4588 7.38896 34.6029 9.37547C31.6493 12.3814 29.0093 16.3021 27.8854 21.1639C26.9183 24.7971 27.1535 28.5871 27.9377 32.6908C28.1468 33.8932 28.4604 35.0694 28.9048 36.2979C26.683 36.0888 24.0431 37.3696 26.5262 46.1259C28.3036 52.5298 29.9765 54.3072 31.2572 54.4118C32.4335 62.018 38.2884 71.6892 47.9335 75.0872C51.8804 76.4725 56.2193 76.4725 60.1662 75.061C69.6544 71.6369 75.7185 61.9919 76.8947 54.4118C78.1755 54.3072 79.8484 52.5037 81.6519 46.1259C84.135 37.3696 81.4951 36.0888 79.2733 36.2979Z" fill="#C2C2C2"/>
<path d="M97.9076 85.7106C84.3418 82.2604 73.3114 74.4973 73.3114 74.4973L63.0913 106.83L63.0652 106.752L61.6537 111.091L57.1057 98.2047C68.2667 82.6263 54.8578 82.7831 54.0998 82.8093C53.3417 82.7831 39.9328 82.6263 51.0938 98.2047L46.5458 111.091L45.1343 106.752L45.1082 106.83L34.8881 74.4973C34.8881 74.4973 23.8577 82.2604 10.2919 85.7106C0.176414 88.2722 -0.320214 99.956 0.0979985 105.759C0.0457219 105.759 0.130034 112.184 0.705077 115.634C0.705077 115.634 21.0086 141.167 54.0998 141.193C87.1909 141.193 107.172 117.749 107.172 117.749C107.773 114.299 108.102 105.759 108.102 105.759C108.52 99.9821 108.023 88.2983 97.9076 85.7106Z" fill="#FFC300"/>
</mask>
<g mask="url(#mask0_4544_3333)">
<rect x="-1.74023" y="30" width="114" height="112" fill="#00CA65"/>
</g>
</svg>
