<svg width="109" height="142" viewBox="0 0 109 142" fill="none" xmlns="http://www.w3.org/2000/svg">
<path d="M72.7969 10.2676L72.2412 10.2295L71.9834 9.7334V9.73438C71.9817 9.73118 71.978 9.72444 71.9727 9.71484C71.962 9.69552 71.9435 9.66362 71.918 9.62012C71.8667 9.53289 71.785 9.39886 71.6709 9.22754C71.4426 8.88478 71.0851 8.39169 70.5811 7.81543C69.5728 6.66269 67.9809 5.17977 65.667 3.89844L65.6553 3.8916L65.6426 3.88477C62.5411 2.04868 58.1983 0.614493 52.4336 1.09277L52.4189 1.09375L52.4053 1.09473C50.5638 1.19427 48.8215 1.54291 47.1777 2.09082C45.092 2.78611 43.1631 3.8347 41.3896 5.05078L41.373 5.0625L41.3555 5.07324C39.1822 6.43785 37.132 8.13396 35.334 10.0586L35.3164 10.0762C32.4556 12.9876 29.9315 16.7513 28.8594 21.3887L28.8564 21.4053L28.8516 21.4209C27.9969 24.6315 28.1269 28.0136 28.7822 31.751L28.9199 32.5029L28.9219 32.5117L28.9229 32.5195C29.1215 33.6618 29.4193 34.7818 29.8447 35.958L30.3818 37.4414L28.8115 37.2939C28.3582 37.2513 27.9609 37.2934 27.6465 37.4307C27.3585 37.5564 27.0766 37.7873 26.8623 38.2617C26.4215 39.2377 26.2734 41.2344 27.2725 45.0625L27.4883 45.8535L27.4902 45.8584C28.3683 49.0218 29.1989 50.9576 29.9219 52.0938C30.5644 53.1035 31.0308 53.3467 31.2568 53.4014L31.3389 53.415L32.125 53.4795L32.2451 54.2588C33.3784 61.5875 39.044 70.8946 48.2656 74.1436H48.2646C51.997 75.4536 56.0999 75.4527 59.8291 74.1191C68.9098 70.8408 74.7752 61.5471 75.9062 54.2588L76.0273 53.4795L76.8135 53.415C76.9886 53.4007 77.4938 53.246 78.2344 52.084C78.9617 50.9428 79.7984 49.0045 80.6895 45.8535L80.9053 45.0625C81.9044 41.2342 81.7563 39.2377 81.3154 38.2617C81.101 37.7872 80.8193 37.5564 80.5312 37.4307C80.2169 37.2934 79.8204 37.2513 79.3672 37.2939L77.8174 37.4395L78.3291 35.9697C78.7351 34.8025 79.0576 33.654 79.2549 32.5195C81.1124 21.3416 79.2476 15.8145 77.1719 13.0996C76.1315 11.739 75.0013 11.0332 74.1523 10.665C73.7258 10.4801 73.3678 10.3789 73.125 10.3252C73.0039 10.2984 72.912 10.2833 72.8555 10.2754C72.8273 10.2714 72.8075 10.2696 72.7979 10.2686L72.7969 10.2676ZM72.7969 10.2676C72.7957 10.2675 72.7947 10.2677 72.7939 10.2676L72.7959 10.2686H72.7969V10.2676ZM73.8633 76.0684C74.1098 76.2282 74.395 76.4101 74.7158 76.6113C75.9786 77.4035 77.8016 78.4938 80.0518 79.6924C84.5474 82.087 90.7741 84.9272 97.6602 86.6787V86.6797C102.298 87.8663 104.745 91.1123 106.007 94.8584C107.281 98.6409 107.31 102.852 107.104 105.687L107.103 105.703V105.722C107.103 105.723 107.102 105.724 107.102 105.726C107.101 105.73 107.102 105.736 107.102 105.744C107.101 105.76 107.1 105.784 107.099 105.815C107.096 105.878 107.092 105.971 107.087 106.09C107.077 106.329 107.062 106.674 107.042 107.1C107.002 107.951 106.943 109.122 106.864 110.399C106.715 112.839 106.497 115.608 106.229 117.306C106.218 117.318 106.207 117.331 106.195 117.344C106.047 117.509 105.823 117.753 105.524 118.066C104.927 118.693 104.033 119.594 102.855 120.677C100.5 122.843 97.0136 125.736 92.5049 128.63C83.4851 134.419 70.4025 140.192 54.0996 140.192C37.8188 140.179 24.6665 133.893 15.5635 127.582C11.0138 124.428 7.48539 121.275 5.09766 118.913C3.90421 117.733 2.99644 116.751 2.38965 116.067C2.08637 115.726 1.85801 115.458 1.70703 115.278C1.68733 115.255 1.66941 115.232 1.65234 115.212C1.40048 113.566 1.24692 111.291 1.16504 109.36C1.12221 108.351 1.09924 107.449 1.08984 106.802C1.08963 106.787 1.09004 106.773 1.08984 106.759H1.17285L1.0957 105.687C0.890437 102.838 0.918227 98.6211 2.19238 94.8389C3.4543 91.0932 5.90035 87.8539 10.5371 86.6797H10.5381C17.4246 84.9282 23.6516 82.0871 28.1475 79.6924C30.3979 78.4937 32.2215 77.4035 33.4844 76.6113C33.8047 76.4104 34.0887 76.228 34.335 76.0684L44.1543 107.132L45.083 110.068L45.1221 109.948L45.5947 111.4L46.5068 114.205L47.4883 111.424L52.0371 98.5371L52.21 98.0459L51.9072 97.6221C49.1573 93.7837 48.0078 91.0295 47.7393 89.0869C47.4799 87.2096 48.0386 86.1016 48.8076 85.3877C49.6333 84.6214 50.8162 84.2062 51.9268 83.9961C53.0198 83.7893 53.921 83.8036 54.0654 83.8086L54.0996 83.8096L54.1338 83.8086C54.2782 83.8036 55.1796 83.7893 56.2725 83.9961C57.3829 84.2062 58.5659 84.6215 59.3916 85.3877C60.1606 86.1016 60.7203 87.2096 60.4609 89.0869C60.1925 91.0294 59.0428 93.7838 56.293 97.6221L55.9893 98.0459L56.1631 98.5371L60.7109 111.424L61.6924 114.205L62.6045 111.4L63.0762 109.949L63.1162 110.068L64.0449 107.132L73.8633 76.0684Z" fill="white" stroke="#C2C2C2" stroke-width="2"/>
</svg>
